<svg width="12" height="12" viewBox="0 0 12 12" fill="none" xmlns="http://www.w3.org/2000/svg">
<path d="M7.06012 6L11.4801 1.58C11.5538 1.51134 11.6129 1.42854 11.6539 1.33654C11.6949 1.24454 11.7169 1.14523 11.7187 1.04452C11.7205 0.94382 11.702 0.843791 11.6642 0.750403C11.6265 0.657015 11.5704 0.572181 11.4992 0.500962C11.4279 0.429743 11.3431 0.373599 11.2497 0.335878C11.1563 0.298157 11.0563 0.279632 10.9556 0.281409C10.8549 0.283185 10.7556 0.305227 10.6636 0.346219C10.5716 0.387211 10.4888 0.446314 10.4201 0.52L6.00012 4.94L1.58012 0.52C1.43795 0.38752 1.2499 0.315397 1.0556 0.318825C0.861298 0.322253 0.675912 0.400966 0.538499 0.538379C0.401086 0.675792 0.322374 0.861177 0.318946 1.05548C0.315518 1.24978 0.387641 1.43783 0.520121 1.58L4.94012 6L0.520121 10.42C0.379671 10.5606 0.300781 10.7513 0.300781 10.95C0.300781 11.1488 0.379671 11.3394 0.520121 11.48C0.660746 11.6205 0.851371 11.6993 1.05012 11.6993C1.24887 11.6993 1.4395 11.6205 1.58012 11.48L6.00012 7.06L10.4201 11.48C10.5607 11.6205 10.7514 11.6993 10.9501 11.6993C11.1489 11.6993 11.3395 11.6205 11.4801 11.48C11.6206 11.3394 11.6995 11.1488 11.6995 10.95C11.6995 10.7513 11.6206 10.5606 11.4801 10.42L7.06012 6Z" fill="blue"/>
</svg>